<svg width="181" height="181" viewBox="0 0 181 181" fill="none" xmlns="http://www.w3.org/2000/svg">
<path fill-rule="evenodd" clip-rule="evenodd" d="M14.0316 166.968C27.1645 180.083 48.2704 180.083 90.5 180.083C132.73 180.083 153.844 180.083 166.959 166.959C180.083 153.853 180.083 132.73 180.083 90.5C180.083 48.2704 180.083 27.1556 166.959 14.0317C153.853 0.916687 132.73 0.916687 90.5 0.916687C48.2704 0.916687 27.1556 0.916687 14.0316 14.0317C0.916626 27.1646 0.916626 48.2704 0.916626 90.5C0.916626 132.73 0.916626 153.853 14.0316 166.968ZM68.1041 61.3854C62.3458 61.3854 56.7168 63.093 51.9289 66.2921C47.1411 69.4913 43.4094 74.0384 41.2058 79.3584C39.0021 84.6784 38.4256 90.5323 39.549 96.18C40.6724 101.828 43.4453 107.015 47.517 111.087C51.5888 115.159 56.7765 117.932 62.4242 119.055C68.0718 120.179 73.9258 119.602 79.2458 117.398C84.5658 115.195 89.1129 111.463 92.312 106.675C95.5112 101.887 97.2187 96.2583 97.2187 90.5C97.2187 88.7181 97.9266 87.0092 99.1866 85.7492C100.447 84.4891 102.156 83.7813 103.937 83.7813C105.719 83.7813 107.428 84.4891 108.688 85.7492C109.948 87.0092 110.656 88.7181 110.656 90.5C110.656 98.916 108.161 107.143 103.485 114.141C98.8092 121.138 92.1635 126.592 84.3881 129.813C76.6127 133.034 68.0569 133.876 59.8026 132.234C51.5483 130.593 43.9663 126.54 38.0153 120.589C32.0642 114.638 28.0116 107.056 26.3697 98.8015C24.7278 90.5472 25.5705 81.9914 28.7911 74.216C32.0118 66.4407 37.4658 59.7949 44.4635 55.1193C51.4611 50.4436 59.6881 47.9479 68.1041 47.9479C69.8861 47.9479 71.595 48.6558 72.855 49.9158C74.115 51.1758 74.8229 52.8848 74.8229 54.6667C74.8229 56.4486 74.115 58.1576 72.855 59.4176C71.595 60.6776 69.8861 61.3854 68.1041 61.3854ZM142.01 90.5C142.01 98.2217 138.943 105.627 133.483 111.087C128.023 116.547 120.617 119.615 112.896 119.615C111.114 119.615 109.405 120.322 108.145 121.582C106.885 122.842 106.177 124.551 106.177 126.333C106.177 128.115 106.885 129.824 108.145 131.084C109.405 132.344 111.114 133.052 112.896 133.052C121.312 133.052 129.539 130.556 136.536 125.881C143.534 121.205 148.988 114.559 152.209 106.784C155.429 99.0086 156.272 90.4528 154.63 82.1985C152.988 73.9442 148.936 66.3622 142.985 60.4112C137.034 54.4601 129.452 50.4074 121.197 48.7656C112.943 47.1237 104.387 47.9664 96.6118 51.187C88.8364 54.4077 82.1907 59.8617 77.515 66.8594C72.8393 73.857 70.3437 82.084 70.3437 90.5C70.3437 92.282 71.0516 93.9909 72.3116 95.2509C73.5716 96.5109 75.2805 97.2188 77.0625 97.2188C78.8444 97.2188 80.5533 96.5109 81.8133 95.2509C83.0733 93.9909 83.7812 92.282 83.7812 90.5C83.7812 82.7784 86.8486 75.373 92.3087 69.9129C97.7687 64.4529 105.174 61.3854 112.896 61.3854C120.617 61.3854 128.023 64.4529 133.483 69.9129C138.943 75.373 142.01 82.7784 142.01 90.5Z" fill="#6C2BD9"/>
</svg>
