<svg width="42" height="14" viewBox="0 0 42 14" fill="none" xmlns="http://www.w3.org/2000/svg">
<path d="M2.92219 4.95658L6.80412 8.82191C6.83318 8.85103 6.86774 8.87414 6.90581 8.88992C6.94388 8.90569 6.9847 8.91381 7.02594 8.91381C7.06717 8.91381 7.10799 8.90569 7.14606 8.88992C7.18413 8.87414 7.21869 8.85103 7.24775 8.82191L10.9075 5.17777C10.9368 5.14883 10.9601 5.11439 10.976 5.07646C10.9918 5.03852 11 4.99784 11 4.95674C11 4.91565 10.9918 4.87496 10.976 4.83702C10.9601 4.79909 10.9368 4.76466 10.9075 4.73571L7.24775 1.0919C7.21869 1.06278 7.18413 1.03966 7.14606 1.02389C7.10799 1.00812 7.06717 1 7.02594 1C6.9847 1 6.94388 1.00812 6.90581 1.02389C6.86774 1.03966 6.83318 1.06278 6.80412 1.0919L1.0923 6.7793C1.06305 6.80823 1.03984 6.84265 1.024 6.88055C1.00816 6.91846 1 6.95911 1 7.00016C1 7.04122 1.00816 7.08187 1.024 7.11977C1.03984 7.15768 1.06305 7.19209 1.0923 7.22103L6.80412 12.9081C6.83318 12.9372 6.86774 12.9603 6.90581 12.9761C6.94388 12.9919 6.9847 13 7.02594 13C7.06717 13 7.10799 12.9919 7.14606 12.9761C7.18413 12.9603 7.21869 12.9372 7.24775 12.9081L10.9075 9.26396C10.9368 9.23503 10.96 9.20061 10.9758 9.16271C10.9917 9.1248 10.9998 9.08415 10.9998 9.0431C10.9998 9.00204 10.9917 8.96139 10.9758 8.92348C10.96 8.88558 10.9368 8.85117 10.9075 8.82223L7.24775 5.17777C7.21869 5.14865 7.18413 5.12553 7.14606 5.10976C7.10799 5.09399 7.06717 5.08587 7.02594 5.08587C6.9847 5.08587 6.94388 5.09399 6.90581 5.10976C6.86774 5.12553 6.83318 5.14865 6.80412 5.17777L2.92187 9.0431" stroke="#6E1478" stroke-width="0.5" stroke-linecap="round" stroke-linejoin="round"/>
<path d="M13.737 11V5.775H14.727V11H13.737ZM14.232 4.73C14.0487 4.73 13.8983 4.67133 13.781 4.554C13.6637 4.42933 13.605 4.27533 13.605 4.092C13.605 3.916 13.6637 3.76933 13.781 3.652C13.8983 3.52733 14.0487 3.465 14.232 3.465C14.4153 3.465 14.5657 3.52733 14.683 3.652C14.8003 3.76933 14.859 3.916 14.859 4.092C14.859 4.27533 14.8003 4.42933 14.683 4.554C14.5657 4.67133 14.4153 4.73 14.232 4.73ZM19.552 11V7.953C19.552 7.557 19.4273 7.23067 19.178 6.974C18.9286 6.71733 18.606 6.589 18.21 6.589C17.946 6.589 17.7113 6.64767 17.506 6.765C17.3006 6.88233 17.1393 7.04367 17.022 7.249C16.9046 7.45433 16.846 7.689 16.846 7.953L16.439 7.722C16.439 7.326 16.527 6.974 16.703 6.666C16.879 6.358 17.1246 6.116 17.44 5.94C17.7553 5.75667 18.111 5.665 18.507 5.665C18.903 5.665 19.2513 5.764 19.552 5.962C19.86 6.16 20.102 6.42033 20.278 6.743C20.454 7.05833 20.542 7.39567 20.542 7.755V11H19.552ZM15.856 11V5.775H16.846V11H15.856ZM23.7633 11.11C23.2793 11.11 22.8467 10.9927 22.4653 10.758C22.084 10.516 21.7797 10.1897 21.5523 9.779C21.3323 9.36833 21.2223 8.90633 21.2223 8.393C21.2223 7.87967 21.3323 7.41767 21.5523 7.007C21.7797 6.59633 22.084 6.27 22.4653 6.028C22.8467 5.786 23.2793 5.665 23.7633 5.665C24.152 5.665 24.504 5.74933 24.8193 5.918C25.1347 6.07933 25.3877 6.30667 25.5783 6.6C25.7763 6.886 25.8863 7.21967 25.9083 7.601V9.174C25.8863 9.548 25.78 9.88167 25.5893 10.175C25.3987 10.4683 25.1457 10.6993 24.8303 10.868C24.515 11.0293 24.1593 11.11 23.7633 11.11ZM23.9283 10.175C24.2583 10.175 24.5443 10.098 24.7863 9.944C25.0357 9.79 25.23 9.581 25.3693 9.317C25.5087 9.04567 25.5783 8.73767 25.5783 8.393C25.5783 8.03367 25.505 7.722 25.3583 7.458C25.219 7.194 25.0247 6.985 24.7753 6.831C24.5333 6.677 24.2473 6.6 23.9173 6.6C23.5873 6.6 23.2977 6.677 23.0483 6.831C22.799 6.985 22.601 7.19767 22.4543 7.469C22.315 7.733 22.2453 8.03733 22.2453 8.382C22.2453 8.734 22.315 9.04567 22.4543 9.317C22.601 9.581 22.799 9.79 23.0483 9.944C23.305 10.098 23.5983 10.175 23.9283 10.175ZM26.5133 11H25.5123V9.592L25.6993 8.316L25.5123 7.051V3.146H26.5133V11ZM27.6357 11V5.775H28.6257V11H27.6357ZM28.1307 4.73C27.9473 4.73 27.797 4.67133 27.6797 4.554C27.5623 4.42933 27.5037 4.27533 27.5037 4.092C27.5037 3.916 27.5623 3.76933 27.6797 3.652C27.797 3.52733 27.9473 3.465 28.1307 3.465C28.314 3.465 28.4643 3.52733 28.5817 3.652C28.699 3.76933 28.7577 3.916 28.7577 4.092C28.7577 4.27533 28.699 4.42933 28.5817 4.554C28.4643 4.67133 28.314 4.73 28.1307 4.73ZM31.4156 11.11C31.1223 11.11 30.8436 11.0733 30.5796 11C30.323 10.9193 30.0846 10.8093 29.8646 10.67C29.6446 10.5233 29.454 10.351 29.2926 10.153L29.9306 9.515C30.1213 9.74967 30.3413 9.92567 30.5906 10.043C30.84 10.153 31.1186 10.208 31.4266 10.208C31.7346 10.208 31.973 10.1567 32.1416 10.054C32.3103 9.944 32.3946 9.79367 32.3946 9.603C32.3946 9.41233 32.325 9.26567 32.1856 9.163C32.0536 9.053 31.8813 8.965 31.6686 8.899C31.456 8.82567 31.2286 8.756 30.9866 8.69C30.752 8.61667 30.5283 8.525 30.3156 8.415C30.103 8.305 29.927 8.15467 29.7876 7.964C29.6556 7.77333 29.5896 7.52033 29.5896 7.205C29.5896 6.88967 29.6666 6.61833 29.8206 6.391C29.9746 6.15633 30.1873 5.97667 30.4586 5.852C30.7373 5.72733 31.071 5.665 31.4596 5.665C31.8703 5.665 32.2333 5.73833 32.5486 5.885C32.8713 6.02433 33.1353 6.237 33.3406 6.523L32.7026 7.161C32.556 6.97033 32.3726 6.82367 32.1526 6.721C31.94 6.61833 31.698 6.567 31.4266 6.567C31.1406 6.567 30.9206 6.61833 30.7666 6.721C30.62 6.81633 30.5466 6.952 30.5466 7.128C30.5466 7.304 30.6126 7.43967 30.7446 7.535C30.8766 7.63033 31.049 7.711 31.2616 7.777C31.4816 7.843 31.709 7.91267 31.9436 7.986C32.1783 8.052 32.402 8.14367 32.6146 8.261C32.8273 8.37833 32.9996 8.536 33.1316 8.734C33.271 8.932 33.3406 9.19233 33.3406 9.515C33.3406 10.0063 33.1646 10.395 32.8126 10.681C32.468 10.967 32.0023 11.11 31.4156 11.11ZM34.13 11V5.775H35.12V11H34.13ZM34.625 4.73C34.4416 4.73 34.2913 4.67133 34.174 4.554C34.0566 4.42933 33.998 4.27533 33.998 4.092C33.998 3.916 34.0566 3.76933 34.174 3.652C34.2913 3.52733 34.4416 3.465 34.625 3.465C34.8083 3.465 34.9586 3.52733 35.076 3.652C35.1933 3.76933 35.252 3.916 35.252 4.092C35.252 4.27533 35.1933 4.42933 35.076 4.554C34.9586 4.67133 34.8083 4.73 34.625 4.73ZM37.9099 11.11C37.6166 11.11 37.3379 11.0733 37.0739 11C36.8173 10.9193 36.5789 10.8093 36.3589 10.67C36.1389 10.5233 35.9483 10.351 35.7869 10.153L36.4249 9.515C36.6156 9.74967 36.8356 9.92567 37.0849 10.043C37.3343 10.153 37.6129 10.208 37.9209 10.208C38.2289 10.208 38.4673 10.1567 38.6359 10.054C38.8046 9.944 38.8889 9.79367 38.8889 9.603C38.8889 9.41233 38.8193 9.26567 38.6799 9.163C38.5479 9.053 38.3756 8.965 38.1629 8.899C37.9503 8.82567 37.7229 8.756 37.4809 8.69C37.2463 8.61667 37.0226 8.525 36.8099 8.415C36.5973 8.305 36.4213 8.15467 36.2819 7.964C36.1499 7.77333 36.0839 7.52033 36.0839 7.205C36.0839 6.88967 36.1609 6.61833 36.3149 6.391C36.4689 6.15633 36.6816 5.97667 36.9529 5.852C37.2316 5.72733 37.5653 5.665 37.9539 5.665C38.3646 5.665 38.7276 5.73833 39.0429 5.885C39.3656 6.02433 39.6296 6.237 39.8349 6.523L39.1969 7.161C39.0503 6.97033 38.8669 6.82367 38.6469 6.721C38.4343 6.61833 38.1923 6.567 37.9209 6.567C37.6349 6.567 37.4149 6.61833 37.2609 6.721C37.1143 6.81633 37.0409 6.952 37.0409 7.128C37.0409 7.304 37.1069 7.43967 37.2389 7.535C37.3709 7.63033 37.5433 7.711 37.7559 7.777C37.9759 7.843 38.2033 7.91267 38.4379 7.986C38.6726 8.052 38.8963 8.14367 39.1089 8.261C39.3216 8.37833 39.4939 8.536 39.6259 8.734C39.7653 8.932 39.8349 9.19233 39.8349 9.515C39.8349 10.0063 39.6589 10.395 39.3069 10.681C38.9623 10.967 38.4966 11.11 37.9099 11.11Z" fill="#1E1E1E" fill-opacity="0.8"/>
</svg>
