<svg fill="none" height="12" viewBox="0 0 118 12" width="118" xmlns="http://www.w3.org/2000/svg" xmlns:xlink="http://www.w3.org/1999/xlink"><clipPath id="a"><path d="m.636292.25h117.156v11.5h-117.156z"/></clipPath><g clip-path="url(#a)"><path d="m103.471 11.75c-2.384 0-4.1022-1.4085-4.1798-3.94687h1.7498c.077 1.45496.804 2.50747 2.414 2.50747 1.378 0 1.857-.77392 1.857-1.79548 0-1.34903-.809-1.59054-2.373-2.05733l-.211-.06311c-1.502-.47981-3.0803-1.05249-3.0803-3.12651 0-1.87281 1.3623-3.01817 3.4513-3.01817 2.182 0 3.622 1.30013 3.746 3.51346h-1.765c-.155-1.34657-.758-2.07403-1.997-2.07403-1.083 0-1.671.51077-1.671 1.48588 0 1.20726.851 1.48586 2.09 1.85732l.024.0075c1.787.53912 3.551 1.07118 3.551 3.38213 0 1.90374-1.208 3.32774-3.606 3.32774zm9.404-.2167v-9.59623h-3.158v-1.470388h8.018v1.470388h-3.157v9.59623zm-23.7002-3.74563c0 2.36813 1.0062 3.96233 3.5132 3.96233 2.5078 0 3.514-1.6097 3.514-3.96233v-7.320988h-1.7027v7.320988c0 1.71803-.6038 2.49193-1.8113 2.49193-1.2226 0-1.8105-.7739-1.8105-2.49193v-7.320988h-1.7027zm-10.3328 3.74563v-11.066618h3.9625c2.0118 0 3.1417 1.145358 3.1417 3.188428 0 1.40847-.6965 2.43001-1.7337 2.70861v.03096c1.4562.32466 1.5655 2.428 1.6373 3.81192.0345.6613.0597 1.1583.22 1.2184v.1083h-1.7796c-.1273-.141-.1352-.5961-.1459-1.1615-.0238-1.29627-.059-3.17228-1.5569-3.17228h-2.0426v4.33378zm1.7028-5.80417h1.919c1.145 0 1.7955-.66555 1.7955-1.96568 0-1.19179-.542-1.82638-1.7804-1.82638h-1.9341zm-9.7454-3.79206v9.59623h1.7026v-9.59623h3.1574v-1.470388h-8.0174v1.470388zm-13.1965 9.59623v-11.066618h1.9038l3.4515 8.512748h.031v-8.512748h1.6716v11.066618h-1.9037l-3.4981-8.51278h-.0309l.0464 8.51278zm-10.3795-1.4704v1.4704h6.7793v-1.4704h-2.5384v-8.12583h2.5384v-1.470388h-6.7793v1.470388h2.5229v8.12583zm-11.401 1.4704 3.3587-11.066618h1.7955l3.3896 11.066618h-1.8264l-.6965-2.66218h-3.5599l-.681 2.66218zm2.9099-4.10161h2.6621l-1.2846-5.38627h-.0619zm-12.4848-6.965008v11.066618h1.7026v-4.33378h2.0431c1.498 0 1.5327 1.87601 1.5567 3.17228.0105.5654.0189 1.0205.1458 1.1615h1.78v-.1083c-.1601-.0601-.186-.5571-.2204-1.2184-.0719-1.38392-.1812-3.48726-1.6369-3.81192v-.03096c1.037-.2786 1.7334-1.30014 1.7334-2.70861 0-2.04307-1.1298-3.188428-3.142-3.188428zm3.6219 5.262448h-1.9193v-3.79206h1.9347c1.2383 0 1.78.63459 1.78 1.82638 0 1.30013-.6501 1.96568-1.7954 1.96568zm-14.2334 5.80417v-11.066618h3.9933c1.8573 0 2.9407 1.037008 2.9407 2.786008 0 1.34656-.6655 1.99663-1.4084 2.30618v.03096c.9596.21669 1.7644 1.09893 1.7644 2.70859 0 2.12048-1.2227 3.23488-3.0956 3.23488zm1.6871-1.4704h2.2287c1.2073 0 1.6252-.7739 1.6252-1.82637 0-1.16083-.5572-1.82638-1.4859-1.82638h-2.368zm0-4.99932h2.0895c.9751 0 1.4084-.57267 1.4084-1.56325s-.5107-1.56326-1.331-1.56326h-2.1669zm-10.23761 5.10002c.9159 0 1.65837-.74249 1.65837-1.6584 0-.9159-.74247-1.65835-1.65837-1.65835-.91588 0-1.65835.74245-1.65835 1.65835 0 .91591.74247 1.6584 1.65835 1.6584zm1.65837-6.81775c0 .91588-.74247 1.65835-1.65837 1.65835-.91588 0-1.65835-.74247-1.65835-1.65835s.74247-1.65835 1.65835-1.65835c.9159 0 1.65837.74247 1.65837 1.65835zm-6.44922 4.2382c.91588 0 1.65835-.74247 1.65835-1.65835 0-.91589-.74247-1.65835-1.65835-1.65835s-1.658348.74246-1.658348 1.65835c0 .91588.742468 1.65835 1.658348 1.65835z" fill="#000"/></g></svg>