<svg width="1323" height="912" viewBox="0 0 1323 912" fill="none" xmlns="http://www.w3.org/2000/svg">
<g clip-path="url(#clip0_1244_2913)">
<rect x="89.623" y="0.614258" width="1232.8" height="828.946" rx="24" fill="#404448"/>
<rect x="440.131" y="170.236" width="531.252" height="38.7845" rx="18" fill="#595E62"/>
<rect x="509.215" y="225.809" width="393.619" height="39.3634" rx="18" fill="#595E62"/>
<rect x="380.152" y="619.141" width="177.263" height="27.207" rx="13.6035" fill="#595E62"/>
<rect x="380.152" y="659.082" width="177.263" height="27.207" rx="13.6035" fill="#595E62"/>
<rect x="616.857" y="619.141" width="176.727" height="27.207" rx="13.6035" fill="#595E62"/>
<rect x="616.857" y="659.082" width="176.727" height="27.207" rx="13.6035" fill="#595E62"/>
<rect x="853.031" y="619.141" width="177.263" height="27.207" rx="13.6035" fill="#595E62"/>
<rect x="853.031" y="659.082" width="177.263" height="27.207" rx="13.6035" fill="#595E62"/>
<rect x="1176.49" y="28.6895" width="115.14" height="53.2563" rx="26.6282" fill="#ffff"/>
<rect x="380.152" y="394.537" width="184.76" height="194.501" rx="39" fill="#484D52"/>
<rect x="612.572" y="394.537" width="184.76" height="194.501" rx="39" fill="#484D52"/>
<rect x="844.996" y="394.537" width="184.76" height="194.501" rx="39" fill="#484D52"/>
<path d="M2.40039 817.731C2.40039 782.62 8.26988 759.809 22.3708 745.693C36.471 731.577 59.2549 725.701 94.3261 725.701C129.397 725.701 152.181 731.577 166.281 745.693C180.382 759.809 186.252 782.62 186.252 817.731C186.252 852.842 180.382 875.652 166.281 889.769C152.181 903.885 129.397 909.76 94.3261 909.76C59.2549 909.76 36.471 903.885 22.3708 889.769C8.26988 875.652 2.40039 852.842 2.40039 817.731Z" fill="#33383C" stroke="#3B4145" stroke-width="3.75"/>
<path opacity="0.4" d="M128.076 851.48H66.5759C64.4757 851.48 63.4256 851.48 62.6235 851.072C61.9179 850.712 61.3442 850.139 60.9847 849.433C60.5759 848.631 60.5759 847.581 60.5759 845.48V783.98" stroke="#ffff" stroke-width="7.5" stroke-linecap="round" stroke-linejoin="round"/>
<path d="M128.076 798.98L107.697 819.359C106.955 820.102 106.583 820.473 106.155 820.612C105.779 820.734 105.373 820.734 104.997 820.612C104.568 820.473 104.197 820.102 103.455 819.359L96.4472 812.352C95.7047 811.609 95.3335 811.238 94.9053 811.099C94.5288 810.977 94.1231 810.977 93.7465 811.099C93.3184 811.238 92.9471 811.609 92.2046 812.352L75.5759 828.98M128.076 798.98H113.076M128.076 798.98V813.98" stroke="#ffff" stroke-width="7.5" stroke-linecap="round" stroke-linejoin="round"/>
</g>
<defs>
<clipPath id="clip0_1244_2913">
<rect width="1322" height="911" fill="white" transform="translate(0.525391 0.635742)"/>
</clipPath>
</defs>
</svg>
