<svg width="1324" height="912" viewBox="0 0 1324 912" fill="none" xmlns="http://www.w3.org/2000/svg">
<g clip-path="url(#clip0_1244_2932)">
<rect x="87.4492" y="1.01367" width="1236.1" height="826.974" rx="24" fill="#404448"/>
<rect x="454.008" y="131.838" width="594.66" height="40.4369" rx="20.2184" fill="#595E62"/>
<rect x="454.008" y="192.098" width="440.841" height="40.4369" rx="20.2184" fill="#595E62"/>
<rect x="399.844" y="27.9707" width="287.815" height="23.7864" rx="11" fill="#595E62"/>
<rect x="1149.91" y="27.9707" width="136.375" height="23.7864" rx="11" fill="#595E62"/>
<path d="M87.4492 31.0137C87.4492 14.4452 100.881 1.01367 117.449 1.01367H354.65V827.987H117.449C100.881 827.987 87.4492 814.556 87.4492 797.987V31.0137Z" fill="#595E62"/>
<rect x="111.238" y="92.1953" width="211.699" height="26.165" rx="8" fill="#404448"/>
<rect x="111.238" y="136.596" width="211.699" height="26.165" rx="8" fill="#404448"/>
<rect x="111.238" y="180.996" width="211.699" height="26.9579" rx="8" fill="#404448"/>
<circle cx="118.88" cy="35.2293" r="6.9734" fill="#404448"/>
<circle cx="143.288" cy="35.2293" r="6.9734" fill="#404448"/>
<circle cx="167.694" cy="35.2293" r="6.9734" fill="#404448"/>
<path d="M477.296 321.701C478.026 318.99 475.983 316.324 473.175 316.324V316.324C471.245 316.324 469.556 317.619 469.054 319.483L455.455 370.005C454.725 372.716 456.768 375.382 459.576 375.382V375.382C461.506 375.382 463.196 374.087 463.697 372.223L477.296 321.701Z" fill="#fff"/>
<rect x="501.217" y="315.32" width="420.305" height="380.712" rx="12.6" fill="#595E62"/>
<rect x="501.217" y="415.828" width="420.305" height="95.4317" fill="#6E7376"/>
<rect x="601.725" y="437.384" width="97.6732" height="19.016" rx="9.50801" fill="#595E62"/>
<rect x="601.725" y="341.879" width="97.6732" height="19.016" rx="9.50801" fill="#404448"/>
<rect x="601.725" y="532.891" width="97.6732" height="19.016" rx="9.50801" fill="#404448"/>
<rect x="601.725" y="613.982" width="97.6732" height="19.016" rx="9.50801" fill="#404448"/>
<rect opacity="0.66" x="601.725" y="470.889" width="157.361" height="18.8149" rx="9.40743" fill="#595E62"/>
<rect opacity="0.66" x="601.725" y="566.394" width="157.361" height="18.8149" rx="9.40743" fill="#404448"/>
<rect opacity="0.66" x="601.725" y="375.382" width="157.361" height="18.8149" rx="9.40743" fill="#404448"/>
<rect opacity="0.66" x="601.725" y="647.485" width="157.361" height="18.8149" rx="9.40743" fill="#404448"/>
<rect x="517.717" y="430.241" width="67.5048" height="66.6047" rx="9.1" fill="#404448"/>
<rect x="517.717" y="334.736" width="67.5048" height="66.6047" rx="9.1" fill="#404448"/>
<rect x="517.717" y="525.748" width="67.5048" height="66.6047" rx="9.1" fill="#404448"/>
<rect x="517.717" y="606.84" width="67.5048" height="66.6047" rx="9.1" fill="#404448"/>
<path d="M1.875 817.595C1.875 782.484 7.74449 759.674 21.8454 745.557C35.9457 731.441 58.7296 725.565 93.8007 725.565C128.872 725.565 151.655 731.441 165.756 745.557C179.857 759.674 185.726 782.484 185.726 817.595C185.726 852.706 179.857 875.516 165.756 889.633C151.655 903.749 128.872 909.625 93.8007 909.625C58.7296 909.625 35.9457 903.749 21.8454 889.633C7.74449 875.516 1.875 852.706 1.875 817.595Z" fill="#33383C" stroke="#3B4145" stroke-width="3.75"/>
<path opacity="0.4" d="M127.551 851.346L97.5505 851.346" stroke="#fff" stroke-width="7.5" stroke-linecap="round" stroke-linejoin="round"/>
<path d="M58.1754 853.221L78.9852 845.217C80.3162 844.705 80.9817 844.449 81.6044 844.115C82.1574 843.818 82.6847 843.475 83.1806 843.091C83.7389 842.657 84.2431 842.153 85.2515 841.145L127.55 798.846C131.693 794.704 131.693 787.988 127.551 783.846C123.408 779.704 116.693 779.704 112.551 783.846L70.2515 826.145C69.2431 827.153 68.7389 827.657 68.3056 828.216C67.9208 828.712 67.5782 829.239 67.2813 829.792C66.9471 830.415 66.6911 831.08 66.1792 832.411L58.1754 853.221ZM58.1754 853.221L65.8934 833.154C66.4457 831.719 66.7218 831.001 67.1954 830.672C67.6094 830.384 68.1215 830.276 68.6165 830.37C69.1829 830.478 69.7269 831.022 70.8147 832.11L79.2863 840.582C80.3742 841.67 80.9181 842.213 81.0263 842.78C81.1208 843.275 81.0121 843.787 80.7247 844.201C80.3958 844.675 79.6779 844.951 78.2419 845.503L58.1754 853.221Z" stroke="#ffff" stroke-width="7.5" stroke-linecap="round" stroke-linejoin="round"/>
</g>
<defs>
<clipPath id="clip0_1244_2932">
<rect width="1324" height="911" fill="white" transform="translate(0 0.5)"/>
</clipPath>
</defs>
</svg>
