<svg width="1323" height="912" viewBox="0 0 1323 912" fill="none" xmlns="http://www.w3.org/2000/svg">
<g clip-path="url(#clip0_1244_2967)">
<rect x="98.123" y="0.614258" width="1224.8" height="830.332" rx="24" fill="#404448"/>
<rect x="1137.73" y="55.5859" width="130.434" height="45.9472" rx="22.9736" fill="#595E62"/>
<rect x="138.982" y="163.07" width="167.364" height="33.6399" rx="12" fill="#595E62"/>
<rect x="451.771" y="163.07" width="816.391" height="203.481" rx="19" fill="#484D52"/>
<rect x="451.771" y="386.243" width="816.391" height="205.122" rx="19" fill="#484D52"/>
<rect x="774.713" y="297.631" width="158.721" height="45.9472" rx="22.9736" fill="#595E62"/>
<rect x="774.713" y="522.444" width="158.721" height="45.9472" rx="22.9736" fill="#595E62"/>
<rect x="956.221" y="297.631" width="139.863" height="45.9472" rx="22.9736" fill="#595E62"/>
<rect x="956.221" y="522.444" width="139.863" height="45.9472" rx="22.9736" fill="#595E62"/>
<rect x="1120.44" y="297.631" width="44.0018" height="45.9472" rx="22.0009" fill="#595E62"/>
<rect x="1216.3" y="177.84" width="32" height="32" rx="16" fill="#ffff"/>
<rect x="1216.3" y="401.011" width="32" height="32" rx="16" fill="#ffff"/>
<rect x="1120.44" y="522.444" width="44.0018" height="45.9472" rx="22.0009" fill="#595E62"/>
<rect x="138.982" y="211.479" width="167.364" height="34.4604" rx="12" fill="#595E62"/>
<rect x="138.982" y="260.709" width="167.364" height="33.6399" rx="12" fill="#595E62"/>
<rect x="138.982" y="310.758" width="167.364" height="32.8194" rx="12" fill="#595E62"/>
<rect x="474.559" y="184.403" width="275.011" height="159.174" rx="11" fill="#595E62"/>
<rect x="474.559" y="408.396" width="275.011" height="159.995" rx="11" fill="#595E62"/>
<path fill-rule="evenodd" clip-rule="evenodd" d="M153.285 60.3509L139.152 82.6486C138.704 83.356 139.196 84.2942 140.015 84.2942H147.294H151.048H152.972L150.571 97.8122C150.369 98.9538 151.832 99.5572 152.448 98.5859L166.581 76.2881C167.029 75.5808 166.537 74.6426 165.718 74.6426H157H154.685H152.761L155.162 61.1246C155.364 59.9829 153.901 59.3795 153.285 60.3509Z" fill="#ffff"/>
<path d="M6.19746 817.731C6.19746 782.62 12.067 759.809 26.1678 745.693C40.2681 731.577 63.052 725.701 98.1232 725.701C133.194 725.701 155.978 731.577 170.078 745.693C184.179 759.809 190.049 782.62 190.049 817.731C190.049 852.842 184.179 875.652 170.078 889.769C155.978 903.885 133.194 909.76 98.1232 909.76C63.052 909.76 40.2681 903.885 26.1678 889.769C12.067 875.652 6.19746 852.842 6.19746 817.731Z" fill="#33383C" stroke="#3B4145" stroke-width="3.75"/>
<path opacity="0.4" d="M90.623 821.48C92.2335 823.633 94.2881 825.415 96.6476 826.704C99.0071 827.993 101.616 828.76 104.298 828.952C106.98 829.144 109.671 828.757 112.191 827.817C114.71 826.877 116.997 825.407 118.898 823.505L130.148 812.255C133.564 808.719 135.453 803.983 135.411 799.067C135.368 794.15 133.396 789.448 129.92 785.971C126.443 782.495 121.741 780.523 116.824 780.48C111.908 780.437 107.172 782.327 103.636 785.743L97.1855 792.155" stroke="#fff" stroke-width="7.5" stroke-linecap="round" stroke-linejoin="round"/>
<path d="M105.623 813.98C104.013 811.827 101.958 810.046 99.5985 808.757C97.239 807.467 94.6299 806.701 91.9481 806.509C89.2663 806.317 86.5746 806.704 84.0555 807.643C81.5364 808.583 79.2489 810.054 77.348 811.955L66.098 823.205C62.6826 826.741 60.7927 831.478 60.8354 836.394C60.8781 841.31 62.85 846.013 66.3264 849.489C69.8029 852.966 74.5056 854.938 79.4218 854.98C84.338 855.023 89.0743 853.133 92.6105 849.718L99.023 843.305" stroke="#ffff" stroke-width="7.5" stroke-linecap="round" stroke-linejoin="round"/>
</g>
<defs>
<clipPath id="clip0_1244_2967">
<rect width="1322" height="911" fill="white" transform="translate(0.525391 0.635742)"/>
</clipPath>
</defs>
</svg>
